# xmcd
#
# Track frame offsets:
#	150
#	16808
#	31580
#	49427
#	63497
#	82271
#	98798
#	114996
#	134057
#	157350
#	179482
#	195916
#	221051
#	235938
#	254732
#	268215
#
# Disc length: 3854 seconds
# Revision: 6
# Processed by: cddbd v1.5.2PL0 Copyright (c) Steve Scherf et al.
# Submitted via: dBpowerAMP V12.0
#
DISCID=f20f0c10
DTITLE=Faith Hill - There You'll Be
DYEAR=2001
DGENRE=Country
TTITLE0=There You'll Be
TTITLE1=This Kiss
TTITLE2=Breathe (Tin Tin Out Radio Mix)
TTITLE3=The Way You Love Me
TTITLE4=Let Me Let Go
TTITLE5=Piece Of My Heart
TTITLE6=If My Heart Had Wings
TTITLE7=There Will Come A Day
TTITLE8=Love Will Always Win
TTITLE9=My Wild Frontier
TTITLE10=You Give Me Love
TTITLE11=Somewhere Down The Road
TTITLE12=Over The Rainbow
TTITLE13=Breathe
TTITLE14=The Way You Love Me (Love To Infinity Remix)
TTITLE15=If I Should Fall Behind
EXTD=
EXTT0=
EXTT1=
EXTT2=
EXTT3=
EXTT4=
EXTT5=
EXTT6=
EXTT7=
EXTT8=
EXTT9=
EXTT10=
EXTT11=
EXTT12=
EXTT13=
EXTT14=
EXTT15=
PLAYORDER=
